<svg width="211" height="50" viewBox="0 0 211 50" fill="none" xmlns="http://www.w3.org/2000/svg"><path d="M68.1804 40.6758h-1.355v-11.25h1.355v11.25zm7.0678 0c-.0781-.1563-.1416-.4346-.1904-.835-.6299.6543-1.3818.9815-2.2559.9815-.7812 0-1.4233-.2198-1.9262-.6592-.4981-.4443-.7471-1.0059-.7471-1.6846 0-.8252.3125-1.4648.9375-1.9189.6299-.459 1.5137-.6885 2.6514-.6885h1.3183v-.6226c0-.4736-.1416-.8496-.4248-1.1279-.2832-.2832-.7007-.4248-1.2524-.4248-.4834 0-.8887.1221-1.2158.3662-.3272.2442-.4908.5396-.4908.8862h-1.3623c0-.3955.1392-.7763.4175-1.1425.2832-.3711.6641-.6641 1.1426-.8789.4834-.2149 1.0132-.3223 1.5893-.3223.9131 0 1.6285.2295 2.146.6885.5176.4541.7862 1.0815.8057 1.8823v3.6475c0 .7275.0928 1.3061.2783 1.7358v.1172h-1.4209zm-2.2485-1.0327c.4248 0 .8276-.1099 1.2085-.3296.3809-.2197.6567-.5054.8276-.857v-1.6259h-1.062c-1.6601 0-2.4902.4858-2.4902 1.4575 0 .4248.1416.7568.4248.9961.2832.2392.647.3589 1.0913.3589zm10.1294-1.0694c0-.3662-.1392-.6494-.4175-.8496-.2734-.2051-.7544-.3808-1.4429-.5273-.6836-.1465-1.228-.3223-1.6333-.5274-.4004-.205-.6982-.4492-.8935-.7324-.1904-.2832-.2857-.6201-.2857-1.0107 0-.6494.2735-1.1988.8204-1.648.5517-.4492 1.2548-.6738 2.1093-.6738.8985 0 1.626.2319 2.1826.6958.5616.4639.8423 1.0571.8423 1.7798h-1.3623c0-.3711-.1587-.6909-.4761-.9595-.3125-.2685-.708-.4028-1.1865-.4028-.4931 0-.8789.1074-1.1572.3222-.2783.2149-.4175.4956-.4175.8423 0 .3272.1294.5738.3882.7398.2588.166.7251.3247 1.3989.476.6787.1514 1.2281.3321 1.648.542.4199.21.73.4639.9302.7618.205.2929.3076.6518.3076 1.0766 0 .708-.2832 1.2769-.8496 1.7066-.5664.4248-1.3013.6372-2.2046.6372-.6348 0-1.1963-.1123-1.6846-.3369-.4883-.2247-.8716-.5372-1.1499-.9375-.2734-.4053-.4102-.8423-.4102-1.3111h1.355c.0244.4541.2051.8154.542 1.084.3418.2637.791.3955 1.3477.3955.5127 0 .9228-.1025 1.2304-.3076.3125-.21.4688-.4883.4688-.835zm4.9585-7.7417v1.919h1.4795v1.0473h-1.4795v4.9146c0 .3174.0659.5566.1977.7178.1319.1562.3565.2343.6739.2343.1562 0 .3711-.0293.6445-.0879v1.0987c-.3564.0976-.7031.1465-1.04.1465-.6055 0-1.0621-.1831-1.3697-.5494-.3076-.3662-.4614-.8862-.4614-1.56v-4.9146h-1.4429V32.751h1.4429v-1.919h1.355zm6.4306 5.8081c0-.7763.1514-1.4746.4542-2.0947.3076-.6201.7324-1.0986 1.2744-1.4355.5468-.337 1.1694-.5054 1.8676-.5054 1.0791 0 1.9506.3735 2.6146 1.1206.669.7471 1.004 1.7407 1.004 2.981v.0952c0 .7715-.149 1.4648-.447 2.08-.293.6104-.716 1.0865-1.267 1.4283-.5471.3418-1.177.5127-1.8899.5127-1.0742 0-1.9458-.3736-2.6148-1.1206-.664-.7471-.9961-1.7359-.9961-2.9663v-.0953zm1.3624.1612c0 .8789.2026 1.5844.6079 2.1167.4101.5322.957.7983 1.6406.7983.6885 0 1.2353-.2685 1.6406-.8057.4053-.5419.6083-1.2988.6083-2.2705 0-.8691-.208-1.5722-.6229-2.1093-.4102-.542-.9571-.813-1.6407-.813-.6689 0-1.2085.2661-1.6186.7983-.4102.5322-.6152 1.294-.6152 2.2852zm8.8334-4.0503l.044.9961c.605-.7617 1.396-1.1426 2.373-1.1426 1.674 0 2.519.9448 2.534 2.8345v5.2368h-1.355v-5.2442c-.005-.5712-.137-.9936-.396-1.267-.254-.2735-.652-.4102-1.194-.4102-.439 0-.825.1172-1.157.3516-.332.2343-.591.5419-.776.9228v5.647h-1.355V32.751h1.282zm8.466 7.9248h-1.355v-11.25h1.355v11.25zm3.648 0h-1.355V32.751h1.355v7.9248zm-1.465-10.0269c0-.2197.066-.4052.198-.5566.136-.1514.337-.2271.6-.2271.264 0 .464.0757.601.2271.137.1514.205.3369.205.5566 0 .2198-.068.4029-.205.5493-.137.1465-.337.2198-.601.2198-.263 0-.464-.0733-.6-.2198-.132-.1464-.198-.3295-.198-.5493zm4.922 2.1021l.044.9961c.605-.7617 1.396-1.1426 2.373-1.1426 1.675 0 2.519.9448 2.534 2.8345v5.2368h-1.355v-5.2442c-.005-.5712-.137-.9936-.395-1.267-.254-.2735-.652-.4102-1.194-.4102-.44 0-.826.1172-1.158.3516-.332.2343-.59.5419-.776.9228v5.647h-1.355V32.751h1.282zm10.283 8.0713c-1.074 0-1.948-.3516-2.622-1.0547-.674-.708-1.011-1.6529-1.011-2.8345v-.249c0-.7862.149-1.4868.447-2.1021.303-.6201.723-1.1035 1.26-1.4502.542-.3515 1.128-.5273 1.758-.5273 1.03 0 1.831.3393 2.402 1.0181.571.6787.857 1.6503.857 2.915v.564h-5.369c.02.7812.247 1.4135.681 1.8969.44.4786.996.7178 1.67.7178.479 0 .884-.0976 1.216-.293.332-.1953.623-.4541.872-.7763l.827.6445c-.664 1.0205-1.66 1.5308-2.988 1.5308zm-.168-7.1045c-.547 0-1.006.2002-1.377.6006-.371.3955-.601.9521-.689 1.6699h3.97v-.1026c-.039-.6884-.225-1.2207-.557-1.5966-.332-.3809-.781-.5713-1.347-.5713zm15.402 6.958h-6.987v-.9741l3.692-4.1016c.546-.6201.922-1.123 1.127-1.5088.21-.3906.315-.7934.315-1.2085 0-.5566-.168-1.0132-.505-1.3696-.337-.3565-.786-.5347-1.348-.5347-.673 0-1.198.1929-1.574.5786-.371.3809-.557.9131-.557 1.5967h-1.355c0-.9814.315-1.7749.945-2.3804.635-.6054 1.482-.9082 2.541-.9082.992 0 1.775.2613 2.351.7837.577.5176.865 1.2085.865 2.0728 0 1.0498-.669 2.2998-2.007 3.75l-2.857 3.0981h5.354v1.106zm4.966-4.0283c0-1.2159.288-2.1924.865-2.9297.576-.7422 1.33-1.1133 2.263-1.1133.927 0 1.662.3174 2.204.9521v-4.1308h1.355v11.25h-1.245l-.066-.8496c-.542.664-1.296.9961-2.263.9961-.918 0-1.667-.376-2.248-1.128-.577-.7519-.865-1.7334-.865-2.9443v-.1025zm1.355.1538c0 .8984.186 1.6015.557 2.1093.371.5079.884.7618 1.538.7618.859 0 1.487-.3858 1.882-1.1573V34.875c-.405-.7471-1.028-1.1206-1.867-1.1206-.664 0-1.182.2563-1.553.769s-.557 1.272-.557 2.2779zm12.334 3.8745c-.078-.1563-.141-.4346-.19-.835-.63.6543-1.382.9815-2.256.9815-.781 0-1.423-.2198-1.926-.6592-.498-.4443-.747-1.0059-.747-1.6846 0-.8252.312-1.4648.937-1.9189.63-.459 1.514-.6885 2.651-.6885h1.319v-.6226c0-.4736-.142-.8496-.425-1.1279-.283-.2832-.701-.4248-1.252-.4248-.484 0-.889.1221-1.216.3662-.327.2442-.491.5396-.491.8862h-1.362c0-.3955.139-.7763.417-1.1425.283-.3711.664-.6641 1.143-.8789.483-.2149 1.013-.3223 1.589-.3223.913 0 1.629.2295 2.146.6885.518.4541.786 1.0815.806 1.8823v3.6475c0 .7275.093 1.3061.278 1.7358v.1172h-1.421zm-2.248-1.0327c.424 0 .827-.1099 1.208-.3296s.657-.5054.828-.857v-1.6259h-1.062c-1.66 0-2.49.4858-2.49 1.4575 0 .4248.141.7568.424.9961.284.2392.647.3589 1.092.3589zm7.99-.9522l1.846-5.9399h1.45l-3.186 9.1479c-.493 1.3184-1.277 1.9776-2.351 1.9776l-.256-.022-.506-.0952v-1.0987l.367.0293c.459 0 .815-.0927 1.069-.2783.259-.1855.471-.5249.637-1.018l.301-.8057-2.828-7.8369h1.48l1.977 5.9399zm9.126-.1172c0-.3662-.139-.6494-.417-.8496-.274-.2051-.754-.3808-1.443-.5273-.684-.1465-1.228-.3223-1.633-.5274-.401-.205-.699-.4492-.894-.7324-.19-.2832-.285-.6201-.285-1.0107 0-.6494.273-1.1988.82-1.648.552-.4492 1.255-.6738 2.109-.6738.899 0 1.626.2319 2.183.6958.561.4639.842 1.0571.842 1.7798h-1.362c0-.3711-.159-.6909-.476-.9595-.313-.2685-.708-.4028-1.187-.4028-.493 0-.879.1074-1.157.3222-.278.2149-.417.4956-.417.8423 0 .3272.129.5738.388.7398.258.166.725.3247 1.399.476.678.1514 1.228.3321 1.648.542.419.21.73.4639.93.7618.205.2929.307.6518.307 1.0766 0 .708-.283 1.2769-.849 1.7066-.567.4248-1.302.6372-2.205.6372-.635 0-1.196-.1123-1.684-.3369-.489-.2247-.872-.5372-1.15-.9375-.274-.4053-.41-.8423-.41-1.3111h1.355c.024.4541.205.8154.542 1.084.341.2637.791.3955 1.347.3955.513 0 .923-.1025 1.231-.3076.312-.21.468-.4883.468-.835zm11.734 2.1021c-.078-.1563-.142-.4346-.191-.835-.63.6543-1.381.9815-2.256.9815-.781 0-1.423-.2198-1.926-.6592-.498-.4443-.747-1.0059-.747-1.6846 0-.8252.313-1.4648.938-1.9189.63-.459 1.513-.6885 2.651-.6885h1.318v-.6226c0-.4736-.141-.8496-.424-1.1279-.284-.2832-.701-.4248-1.253-.4248-.483 0-.889.1221-1.216.3662-.327.2442-.49.5396-.49.8862H186.1c0-.3955.139-.7763.418-1.1425.283-.3711.664-.6641 1.142-.8789.484-.2149 1.014-.3223 1.59-.3223.913 0 1.628.2295 2.146.6885.517.4541.786 1.0815.805 1.8823v3.6475c0 .7275.093 1.3061.279 1.7358v.1172h-1.421zm-2.249-1.0327c.425 0 .828-.1099 1.209-.3296.381-.2197.656-.5054.827-.857v-1.6259h-1.062c-1.66 0-2.49.4858-2.49 1.4575 0 .4248.142.7568.425.9961.283.2392.647.3589 1.091.3589zm5.193-2.9956c0-1.2354.286-2.2168.857-2.9444.571-.7324 1.328-1.0986 2.271-1.0986.966 0 1.721.3418 2.263 1.0254l.066-.8789h1.237v7.7344c0 1.0253-.305 1.8334-.915 2.4243-.606.5908-1.421.8862-2.446.8862-.572 0-1.131-.1221-1.678-.3662-.546-.2442-.964-.5786-1.252-1.0034l.703-.813c.581.7178 1.292 1.0766 2.131 1.0766.66 0 1.172-.1855 1.539-.5566.371-.3711.556-.8936.556-1.5674v-.6811c-.542.625-1.282.9375-2.219.9375-.928 0-1.68-.3736-2.256-1.1206-.571-.7471-.857-1.7652-.857-3.0542zm1.362.1538c0 .8935.184 1.5966.55 2.1093.366.5079.879.7618 1.538.7618.854 0 1.482-.3882 1.882-1.1646v-3.6182c-.415-.7568-1.037-1.1352-1.868-1.1352-.659 0-1.174.2563-1.545.769s-.557 1.272-.557 2.2779zm7.024-.1612c0-.7763.152-1.4746.454-2.0947.308-.6201.733-1.0986 1.275-1.4355.547-.337 1.169-.5054 1.868-.5054 1.079 0 1.95.3735 2.614 1.1206.669.7471 1.004 1.7407 1.004 2.981v.0952c0 .7715-.149 1.4648-.447 2.08-.293.6104-.715 1.0865-1.267 1.4283-.547.3418-1.177.5127-1.89.5127-1.074 0-1.946-.3736-2.615-1.1206-.664-.7471-.996-1.7359-.996-2.9663v-.0953zm1.363.1612c0 .8789.202 1.5844.608 2.1167.41.5322.957.7983 1.64.7983.689 0 1.236-.2685 1.641-.8057.405-.5419.608-1.2988.608-2.2705 0-.8691-.208-1.5722-.623-2.1093-.41-.542-.957-.813-1.64-.813-.669 0-1.209.2661-1.619.7983-.41.5322-.615 1.294-.615 2.2852z" fill="#2A8BF2"/><path d="M76.752 6.44189v8.55181c0 1.3593-.4366 2.4375-1.3096 3.2343-.8672.791-2.0244 1.1866-3.4717 1.1866-1.4648 0-2.6279-.3897-3.4893-1.169-.8613-.7852-1.2919-1.8721-1.2919-3.2607V6.44189h2.2148v8.56051c0 .8555.2168 1.5088.6504 1.96.4336.4512 1.0723.6768 1.916.6768 1.7109 0 2.5664-.9024 2.5664-2.7071V6.44189h2.2149zm7.5058 10.21291c0-.3809-.1582-.6709-.4746-.8701-.3105-.1993-.8291-.375-1.5557-.5274-.7265-.1523-1.333-.3457-1.8193-.5801-1.0664-.5156-1.5996-1.2626-1.5996-2.2412 0-.8203.3457-1.5058 1.0371-2.0566.6914-.55079 1.5703-.82618 2.6367-.82618 1.1367 0 2.0537.28125 2.751.84378.7031.5625 1.0547 1.292 1.0547 2.1884h-2.1358c0-.4101-.1523-.75-.457-1.0195-.3047-.2754-.709-.4131-1.2129-.4131-.4687 0-.8525.1084-1.1513.3252-.293.2168-.4395.5069-.4395.8701 0 .3282.1377.5831.4131.7647.2754.1816.832.3662 1.6699.5537.8379.1816 1.4942.4014 1.9688.6592.4804.2519.8349.5566 1.0634.914.2344.3575.3516.7911.3516 1.3008 0 .8555-.3545 1.5498-1.0635 2.083-.709.5274-1.6377.7911-2.7861.7911-.7793 0-1.4736-.1407-2.083-.4219-.6094-.2813-1.084-.668-1.4238-1.1602-.3399-.4922-.5098-1.0224-.5098-1.5908h2.0742c.0293.5039.2197.8936.5713 1.1689.3516.2696.8174.4043 1.3975.4043.5625 0 .9902-.1054 1.2832-.3164.2929-.2168.4394-.498.4394-.8437zm6.6445-9.23732V9.729h1.6788v1.582h-1.6788v5.3086c0 .3633.0704.627.211.791.1465.1582.4043.2373.7734.2373.2461 0 .4951-.0292.7471-.0878v1.6523c-.4863.1348-.9551.2022-1.4063.2022-1.6406 0-2.4609-.9053-2.4609-2.7159V11.311h-1.5645V9.729h1.5645V7.41748h2.1357zm9 11.82132c-.0937-.1817-.1757-.4776-.2461-.8877-.6796.709-1.5117 1.0635-2.496 1.0635-.9551 0-1.7344-.2725-2.3379-.8174-.6035-.545-.9053-1.2188-.9053-2.0215 0-1.0137.375-1.7901 1.125-2.3291.7559-.5449 1.834-.8174 3.2344-.8174h1.3095v-.624c0-.4922-.1377-.8848-.413-1.1778-.2754-.2988-.6944-.4482-1.2569-.4482-.4863 0-.8848.123-1.1953.3691-.3105.2403-.4658.5479-.4658.9229h-2.1358c0-.5215.1729-1.0078.5186-1.459.3457-.457.8144-.8144 1.4062-1.07226.5977-.25781 1.2627-.38672 1.9952-.38672 1.1132 0 2.0009.28125 2.6629.84378.662.5566 1.002 1.3418 1.02 2.3554v4.2891c0 .8555.12 1.5381.36 2.0479v.1494h-2.1797zm-2.3466-1.5381c.4218 0 .8173-.1026 1.1865-.3076.375-.2051.6562-.4805.8437-.8262v-1.793h-1.1513c-.791 0-1.3858.1377-1.7842.4131-.3984.2754-.5977.6651-.5977 1.169 0 .4101.1348.7382.4043.9843.2754.2403.6416.3604 1.0987.3604zm6.0033-3.2871c0-1.4649.339-2.6397 1.019-3.5244.68-.89066 1.591-1.33598 2.734-1.33598 1.007 0 1.822.35157 2.443 1.05468V5.73877h2.136V19.2388h-1.934l-.105-.9844c-.639.7734-1.492 1.1602-2.558 1.1602-1.113 0-2.016-.4483-2.707-1.3448-.686-.8965-1.028-2.1152-1.028-3.6562zm2.135.1845c0 .9668.185 1.7227.554 2.2676.375.5391.905.8086 1.591.8086.873 0 1.512-.3896 1.916-1.1689v-4.0606c-.393-.7617-1.026-1.1426-1.899-1.1426-.691 0-1.224.2754-1.599.8262-.375.5449-.563 1.3682-.563 2.4697zm10.705 2.9356h5.063v1.7051h-7.717v-1.3975l4.825-6.3896h-4.737V9.729h7.444v1.3535l-4.878 6.4512zm12.455 1.7051c-.094-.1817-.176-.4776-.247-.8877-.679.709-1.511 1.0635-2.496 1.0635-.955 0-1.734-.2725-2.338-.8174-.603-.545-.905-1.2188-.905-2.0215 0-1.0137.375-1.7901 1.125-2.3291.756-.5449 1.834-.8174 3.235-.8174h1.309v-.624c0-.4922-.138-.8848-.413-1.1778-.275-.2988-.694-.4482-1.257-.4482-.486 0-.885.123-1.195.3691-.311.2403-.466.5479-.466.9229h-2.136c0-.5215.173-1.0078.519-1.459.346-.457.814-.8144 1.406-1.07226.598-.25781 1.263-.38672 1.995-.38672 1.114 0 2.001.28125 2.663.84378.662.5566 1.002 1.3418 1.02 2.3554v4.2891c0 .8555.12 1.5381.36 2.0479v.1494h-2.179zm-2.347-1.5381c.422 0 .817-.1026 1.186-.3076.375-.2051.657-.4805.844-.8262v-1.793h-1.151c-.791 0-1.386.1377-1.784.4131-.399.2754-.598.6651-.598 1.169 0 .4101.135.7382.404.9843.276.2403.642.3604 1.099.3604zm8.508-6.9346c.697-.80858 1.579-1.21288 2.645-1.21288 2.028 0 3.056 1.15718 3.085 3.47168v6.2139h-2.136V13.104c0-.6562-.143-1.1191-.43-1.3887-.282-.2754-.698-.4131-1.248-.4131-.856 0-1.494.3809-1.916 1.1426v6.794h-2.136V5.73877h2.136v5.02733zm22.737 8.4727h-2.224l-5.704-9.0791v9.0791h-2.223V6.44189h2.223l5.722 9.11431V6.44189h2.206V19.2388zm8.103 0c-.093-.1817-.175-.4776-.246-.8877-.679.709-1.511 1.0635-2.496 1.0635-.955 0-1.734-.2725-2.338-.8174-.603-.545-.905-1.2188-.905-2.0215 0-1.0137.375-1.7901 1.125-2.3291.756-.5449 1.834-.8174 3.234-.8174h1.31v-.624c0-.4922-.138-.8848-.413-1.1778-.275-.2988-.694-.4482-1.257-.4482-.486 0-.885.123-1.195.3691-.311.2403-.466.5479-.466.9229h-2.136c0-.5215.173-1.0078.519-1.459.346-.457.814-.8144 1.406-1.07226.598-.25781 1.263-.38672 1.995-.38672 1.113 0 2.001.28125 2.663.84378.662.5566 1.002 1.3418 1.02 2.3554v4.2891c0 .8555.12 1.5381.36 2.0479v.1494h-2.18zm-2.346-1.5381c.422 0 .817-.1026 1.186-.3076.375-.2051.657-.4805.844-.8262v-1.793h-1.151c-.791 0-1.386.1377-1.784.4131-.399.2754-.598.6651-.598 1.169 0 .4101.135.7382.404.9843.276.2403.642.3604 1.099.3604zm14.748-3.1201c0 1.4765-.331 2.6513-.993 3.5244-.657.873-1.562 1.3096-2.716 1.3096-1.113 0-1.981-.4014-2.602-1.2042l-.105 1.0284h-1.934V5.73877h2.136v4.90433c.615-.7266 1.444-1.08988 2.487-1.08988 1.16 0 2.072.43067 2.734 1.29198.662.8613.993 2.0654.993 3.6123v.1231zm-2.136-.1846c0-1.0313-.182-1.8047-.545-2.3203-.363-.5156-.89-.7735-1.582-.7735-.926 0-1.576.4043-1.951 1.2129v3.92c.381.8261 1.037 1.2392 1.969 1.2392.668 0 1.183-.249 1.547-.7471.363-.498.55-1.2509.562-2.2587v-.2725zm6.205 4.8428h-2.136V9.729h2.136v9.5098zm-2.267-11.97952c0-.32813.102-.60059.307-.81739.211-.21679.51-.32519.897-.32519.386 0 .685.1084.896.32519.211.2168.317.48926.317.81739 0 .32226-.106.59179-.317.80859-.211.21094-.51.31641-.896.31641-.387 0-.686-.10547-.897-.31641-.205-.2168-.307-.48633-.307-.80859zm6.873 11.97952h-2.136V5.73877h2.136V19.2388zm8.015 0c-.093-.1817-.176-.4776-.246-.8877-.68.709-1.512 1.0635-2.496 1.0635-.955 0-1.734-.2725-2.338-.8174-.603-.545-.905-1.2188-.905-2.0215 0-1.0137.375-1.7901 1.125-2.3291.756-.5449 1.834-.8174 3.234-.8174h1.31v-.624c0-.4922-.138-.8848-.413-1.1778-.276-.2988-.695-.4482-1.257-.4482-.486 0-.885.123-1.195.3691-.311.2403-.466.5479-.466.9229h-2.136c0-.5215.173-1.0078.519-1.459.345-.457.814-.8144 1.406-1.07226.598-.25781 1.263-.38672 1.995-.38672 1.113 0 2.001.28125 2.663.84378.662.5566 1.002 1.3418 1.02 2.3554v4.2891c0 .8555.12 1.5381.36 2.0479v.1494h-2.18zm-2.346-1.5381c.421 0 .817-.1026 1.186-.3076.375-.2051.656-.4805.844-.8262v-1.793h-1.152c-.791 0-1.385.1377-1.784.4131-.398.2754-.597.6651-.597 1.169 0 .4101.134.7382.404.9843.275.2403.642.3604 1.099.3604z" fill="#0D1C2E"/><path d="M24.8117.523438C11.317.523438.374878 11.4639.374878 24.9603c0 13.4963 10.941122 24.4368 24.436822 24.4368 13.4969 0 24.4369-10.9405 24.4369-24.4368 0-13.4964-10.94-24.436862-24.4369-24.436862zm0 7.306902c4.4653 0 8.0837 3.61966 8.0837 8.08296 0 4.4645-3.6184 8.083-8.0837 8.083-4.4631 0-8.0815-3.6185-8.0815-8.083 0-4.4633 3.6184-8.08296 8.0815-8.08296zM24.8064 43.008c-4.4535 0-8.5324-1.6219-11.6786-4.3066-.7664-.6537-1.2086-1.6123-1.2086-2.6181 0-4.5267 3.6635-8.1496 8.1911-8.1496h9.405c4.5287 0 8.1782 3.6229 8.1782 8.1496 0 1.0068-.4401 1.9633-1.2076 2.617-3.145 2.6858-7.225 4.3077-11.6795 4.3077z" fill="#2682AA"/></svg>